<svg width="24" height="24" viewBox="0 0 24 24" fill="none" xmlns="http://www.w3.org/2000/svg">
<path d="M5.0471 3.60547C5.15653 3.60547 5.26597 3.60547 5.37541 3.60547C5.76589 3.68755 6.12239 3.84258 6.45152 4.06974C9.51157 6.17803 12.5741 8.28384 15.635 10.3896C15.7925 10.4983 15.9459 10.6127 16.0802 10.7503C16.5345 11.2154 16.7459 11.7592 16.5859 12.4067C16.4549 12.939 16.0968 13.3079 15.6574 13.6097C12.5874 15.723 9.51738 17.8362 6.44738 19.9495C6.19037 20.1261 5.91927 20.2745 5.61335 20.3524C5.07363 20.4909 4.5621 20.2869 4.27525 19.8144C4.05555 19.4521 4 19.0491 4 18.6354C4 14.2414 4 9.84744 4.00083 5.45427C4.00083 5.26856 4.00415 5.08119 4.02985 4.89797C4.09368 4.43453 4.25369 4.01834 4.68397 3.76631C4.79755 3.69998 4.92523 3.65853 5.0471 3.60547Z" fill="#214545"/>
<path d="M19.2466 3.60547C19.4804 3.68174 19.6951 3.78455 19.8361 4.0001C19.9671 4.20073 19.9994 4.42209 19.9994 4.65588C19.9977 9.00678 19.9986 13.3568 19.9986 17.7077C19.9986 18.2541 19.9986 18.8004 19.9986 19.3476C19.9986 20.0407 19.6379 20.398 18.9482 20.3939C18.6555 20.3922 18.3695 20.379 18.1274 20.1825C17.9019 19.9992 17.7817 19.7655 17.7709 19.4761C17.7684 19.4164 17.7701 19.3559 17.7701 19.2954C17.7701 14.4587 17.7701 9.62111 17.7701 4.78439C17.7701 4.06891 17.906 3.86579 18.5585 3.60547H19.2475L19.2466 3.60547Z" fill="#214545"/>
</svg>
