<svg width="24" height="24" viewBox="0 0 24 24" fill="none" xmlns="http://www.w3.org/2000/svg">
<path d="M18.6667 4.66683H16.6667V4.00016C16.6667 3.82335 16.5964 3.65378 16.4714 3.52876C16.3464 3.40373 16.1768 3.3335 16 3.3335C15.8232 3.3335 15.6536 3.40373 15.5286 3.52876C15.4036 3.65378 15.3333 3.82335 15.3333 4.00016V4.66683H8.66667V4.00016C8.66667 3.82335 8.59643 3.65378 8.4714 3.52876C8.34638 3.40373 8.17681 3.3335 8 3.3335C7.82319 3.3335 7.65362 3.40373 7.5286 3.52876C7.40357 3.65378 7.33333 3.82335 7.33333 4.00016V4.66683H5.33333C4.97971 4.66683 4.64057 4.80731 4.39052 5.05735C4.14048 5.3074 4 5.64654 4 6.00016V19.3335C4 19.6871 4.14048 20.0263 4.39052 20.2763C4.64057 20.5264 4.97971 20.6668 5.33333 20.6668H18.6667C19.0203 20.6668 19.3594 20.5264 19.6095 20.2763C19.8595 20.0263 20 19.6871 20 19.3335V6.00016C20 5.64654 19.8595 5.3074 19.6095 5.05735C19.3594 4.80731 19.0203 4.66683 18.6667 4.66683ZM18.6667 8.66683H5.33333V6.00016H7.33333V6.66683C7.33333 6.84364 7.40357 7.01321 7.5286 7.13823C7.65362 7.26326 7.82319 7.3335 8 7.3335C8.17681 7.3335 8.34638 7.26326 8.4714 7.13823C8.59643 7.01321 8.66667 6.84364 8.66667 6.66683V6.00016H15.3333V6.66683C15.3333 6.84364 15.4036 7.01321 15.5286 7.13823C15.6536 7.26326 15.8232 7.3335 16 7.3335C16.1768 7.3335 16.3464 7.26326 16.4714 7.13823C16.5964 7.01321 16.6667 6.84364 16.6667 6.66683V6.00016H18.6667V8.66683Z" fill="#214545"/>
</svg>
