<svg width="24" height="24" viewBox="0 0 24 24" fill="none" xmlns="http://www.w3.org/2000/svg">
<path d="M16.5895 21.11H7.34048C7.32756 21.057 7.2763 21.0614 7.24109 21.0507C6.51728 20.8256 6.1224 20.3323 6.05109 19.5826C5.99716 19.0166 5.9566 18.4492 5.90891 17.8823C5.77119 16.235 5.63124 14.5881 5.49486 12.9409C5.37007 11.4353 5.25285 9.92929 5.12003 8.42418C5.10443 8.24724 5.15123 8.22808 5.30499 8.22852C9.76774 8.23209 14.2309 8.23164 18.6937 8.23164C18.7231 8.23164 18.7534 8.23476 18.7824 8.2312C18.8809 8.21827 18.8938 8.25972 18.8862 8.35198C18.7369 10.1053 18.5903 11.8587 18.4454 13.6121C18.2854 15.5486 18.125 17.4852 17.9721 19.4222C17.928 19.9788 17.755 20.4571 17.2866 20.802C17.074 20.9585 16.8271 21.0209 16.5891 21.1104L16.5895 21.11ZM9.87069 18.5276C9.823 17.7276 9.78824 17.1241 9.7508 16.5207C9.61219 14.2971 9.47224 12.0731 9.33408 9.84952C9.31313 9.51257 9.0934 9.28928 8.78543 9.29908C8.47255 9.30889 8.25594 9.55447 8.26797 9.8972C8.27689 10.1517 8.29784 10.4057 8.31343 10.6602C8.40436 12.1212 8.49528 13.5818 8.5862 15.0428C8.65707 16.1842 8.72704 17.3256 8.80058 18.467C8.81529 18.6939 8.93384 18.8575 9.14778 18.9386C9.53553 19.0861 9.88139 18.7897 9.87069 18.5272V18.5276ZM15.7302 9.96272H15.7343C15.7343 9.92127 15.7351 9.87982 15.7343 9.83837C15.7271 9.54199 15.5096 9.31112 15.2275 9.30042C14.9405 9.28928 14.6891 9.51212 14.6699 9.80851C14.5844 11.1447 14.5028 12.4809 14.4199 13.8171C14.341 15.0824 14.2621 16.3477 14.1832 17.6126C14.1667 17.8787 14.144 18.1448 14.1378 18.4109C14.1302 18.7278 14.3557 18.9666 14.6534 18.9742C14.953 18.9818 15.1829 18.7594 15.2025 18.4407C15.2654 17.4237 15.3264 16.4066 15.3897 15.3899C15.5025 13.5809 15.6166 11.7718 15.7302 9.96272ZM11.4667 14.1384C11.4667 15.3115 11.4667 16.485 11.4667 17.6581C11.4667 17.9246 11.4609 18.1916 11.4698 18.4581C11.4792 18.7371 11.6927 18.9533 11.9619 18.9733C12.2231 18.9929 12.4642 18.8142 12.5199 18.5517C12.5359 18.4773 12.5333 18.3988 12.5333 18.3217C12.5337 15.5308 12.5337 12.7398 12.5333 9.94935C12.5333 9.89007 12.5355 9.83035 12.5288 9.77196C12.4985 9.52237 12.2948 9.32449 12.0475 9.30176C11.7979 9.27858 11.5737 9.43457 11.4926 9.68015C11.4636 9.76751 11.4672 9.85531 11.4672 9.94356C11.4667 11.3421 11.4672 12.7403 11.4672 14.1389L11.4667 14.1384Z" fill="#D27373"/>
<path d="M11.9799 7.16471C9.70418 7.16471 7.42846 7.16471 5.1523 7.16471C4.62281 7.16471 4.21589 6.90086 4.06569 6.46631C3.81298 5.73403 4.31662 5.03608 5.10951 5.03162C6.08736 5.02627 7.06522 5.03028 8.04307 5.03028C8.07873 5.03028 8.11483 5.02583 8.14959 5.03117C8.24453 5.04544 8.26904 5.00532 8.26681 4.91351C8.26057 4.64698 8.24586 4.37778 8.31495 4.11794C8.51061 3.38389 9.10427 2.90565 9.86908 2.89942C11.2913 2.88783 12.714 2.88471 14.1362 2.90031C15.0481 2.91011 15.7108 3.59693 15.7349 4.50971C15.738 4.62827 15.7469 4.74816 15.7326 4.86493C15.7144 5.01379 15.779 5.03385 15.9087 5.03296C16.9044 5.02805 17.9001 5.02538 18.8957 5.03162C19.6797 5.03652 20.1865 5.72824 19.9351 6.45294C19.7898 6.87278 19.4747 7.09875 19.0379 7.15625C18.9559 7.16694 18.8721 7.16471 18.7892 7.16471C16.5193 7.16471 14.2494 7.16471 11.9795 7.16471H11.9799ZM11.9924 5.03028C12.7327 5.03028 13.4725 5.03073 14.2128 5.02984C14.3595 5.02984 14.552 5.07708 14.6398 5.00309C14.7325 4.9251 14.6661 4.72587 14.6665 4.57968C14.6688 4.16786 14.4597 3.96418 14.0417 3.96329C13.5799 3.9624 13.1182 3.96329 12.656 3.96329C11.7383 3.96329 10.8206 3.96151 9.90296 3.96418C9.55621 3.96507 9.33871 4.18435 9.33247 4.52843C9.33024 4.64698 9.34183 4.76643 9.32935 4.8832C9.31509 5.01557 9.37035 5.03385 9.48757 5.03296C10.3224 5.02761 11.1571 5.03028 11.9919 5.03028H11.9924Z" fill="#D27373"/>
</svg>
