<svg width="24" height="24" viewBox="0 0 24 24" fill="none" xmlns="http://www.w3.org/2000/svg">
<path d="M6.82228 11.4928C6.7476 11.4033 6.69674 11.2892 6.67613 11.165C6.65551 11.0408 6.66608 10.912 6.70648 10.795C6.74688 10.678 6.8153 10.578 6.90309 10.5077C6.99087 10.4374 7.09407 10.3999 7.19961 10.4H11.4663V4.64C11.4663 4.47026 11.5225 4.30747 11.6225 4.18745C11.7225 4.06743 11.8582 4 11.9996 4C12.1411 4 12.2767 4.06743 12.3767 4.18745C12.4768 4.30747 12.5329 4.47026 12.5329 4.64V10.4H16.7996C16.9052 10.3999 17.0083 10.4374 17.0961 10.5077C17.1839 10.578 17.2523 10.678 17.2927 10.795C17.3331 10.912 17.3437 11.0408 17.3231 11.165C17.3025 11.2892 17.2516 11.4033 17.1769 11.4928L12.3769 17.2528C12.3274 17.3123 12.2686 17.3595 12.2038 17.3917C12.1391 17.4239 12.0697 17.4405 11.9996 17.4405C11.9295 17.4405 11.8601 17.4239 11.7954 17.3917C11.7306 17.3595 11.6718 17.3123 11.6223 17.2528L6.82228 11.4928ZM17.8663 18.72H6.13294C5.99149 18.72 5.85584 18.7874 5.75582 18.9075C5.6558 19.0275 5.59961 19.1903 5.59961 19.36C5.59961 19.5297 5.6558 19.6925 5.75582 19.8125C5.85584 19.9326 5.99149 20 6.13294 20H17.8663C18.0077 20 18.1434 19.9326 18.2434 19.8125C18.3434 19.6925 18.3996 19.5297 18.3996 19.36C18.3996 19.1903 18.3434 19.0275 18.2434 18.9075C18.1434 18.7874 18.0077 18.72 17.8663 18.72Z" fill="white"/>
</svg>
