<svg width="24" height="24" viewBox="0 0 24 24" fill="none" xmlns="http://www.w3.org/2000/svg">
<path d="M19.625 7.94976L16.0505 4.37452C15.9317 4.25563 15.7906 4.16132 15.6352 4.09698C15.4799 4.03263 15.3135 3.99951 15.1453 3.99951C14.9772 3.99951 14.8107 4.03263 14.6554 4.09698C14.5001 4.16132 14.359 4.25563 14.2401 4.37452L4.37521 14.2402C4.25583 14.3587 4.16119 14.4996 4.09677 14.655C4.03236 14.8103 3.99947 14.9769 4.00001 15.145V18.7203C4.00001 19.0598 4.13486 19.3853 4.37491 19.6254C4.61496 19.8654 4.94054 20.0003 5.28002 20.0003H8.85526C9.02342 20.0008 9.19 19.9679 9.34534 19.9035C9.50067 19.8391 9.64164 19.7445 9.76007 19.6251L19.625 9.76019C19.7439 9.64132 19.8382 9.5002 19.9025 9.34488C19.9669 9.18957 20 9.02309 20 8.85497C20 8.68686 19.9669 8.52038 19.9025 8.36507C19.8382 8.20975 19.7439 8.06863 19.625 7.94976ZM16.8002 10.7746L13.2249 7.20016L15.1449 5.28013L18.7202 8.85457L16.8002 10.7746Z" fill="#214545"/>
</svg>
