<svg width="24" height="24" viewBox="0 0 24 24" fill="none" xmlns="http://www.w3.org/2000/svg">
<path d="M19.5003 13.6665C19.2793 13.6665 19.0673 13.7543 18.9111 13.9106C18.7548 14.0669 18.667 14.2788 18.667 14.4998V17.8332C18.667 18.0542 18.5792 18.2661 18.4229 18.4224C18.2666 18.5787 18.0547 18.6665 17.8337 18.6665H6.16699C5.94598 18.6665 5.73402 18.5787 5.57774 18.4224C5.42146 18.2661 5.33366 18.0542 5.33366 17.8332V14.4998C5.33366 14.2788 5.24586 14.0669 5.08958 13.9106C4.9333 13.7543 4.72134 13.6665 4.50033 13.6665C4.27931 13.6665 4.06735 13.7543 3.91107 13.9106C3.75479 14.0669 3.66699 14.2788 3.66699 14.4998V17.8332C3.66699 18.4962 3.93038 19.1321 4.39923 19.6009C4.86807 20.0698 5.50395 20.3332 6.16699 20.3332H17.8337C18.4967 20.3332 19.1326 20.0698 19.6014 19.6009C20.0703 19.1321 20.3337 18.4962 20.3337 17.8332V14.4998C20.3337 14.2788 20.2459 14.0669 20.0896 13.9106C19.9333 13.7543 19.7213 13.6665 19.5003 13.6665ZM11.4087 15.0915C11.4879 15.1674 11.5814 15.2268 11.6837 15.2665C11.7834 15.3106 11.8913 15.3334 12.0003 15.3334C12.1094 15.3334 12.2172 15.3106 12.317 15.2665C12.4193 15.2268 12.5127 15.1674 12.592 15.0915L15.9253 11.7582C16.0822 11.6013 16.1704 11.3884 16.1704 11.1665C16.1704 10.9446 16.0822 10.7318 15.9253 10.5748C15.7684 10.4179 15.5556 10.3298 15.3337 10.3298C15.1117 10.3298 14.8989 10.4179 14.742 10.5748L12.8337 12.4915V4.49984C12.8337 4.27882 12.7459 4.06686 12.5896 3.91058C12.4333 3.7543 12.2213 3.6665 12.0003 3.6665C11.7793 3.6665 11.5674 3.7543 11.4111 3.91058C11.2548 4.06686 11.167 4.27882 11.167 4.49984V12.4915L9.25866 10.5748C9.18096 10.4971 9.08872 10.4355 8.9872 10.3935C8.88568 10.3514 8.77687 10.3298 8.66699 10.3298C8.55711 10.3298 8.4483 10.3514 8.34678 10.3935C8.24527 10.4355 8.15302 10.4971 8.07533 10.5748C7.99763 10.6525 7.93599 10.7448 7.89394 10.8463C7.85189 10.9478 7.83025 11.0566 7.83025 11.1665C7.83025 11.2764 7.85189 11.3852 7.89394 11.4867C7.93599 11.5882 7.99763 11.6805 8.07533 11.7582L11.4087 15.0915Z" fill="white"/>
</svg>
