<svg width="24" height="24" viewBox="0 0 24 24" fill="none" xmlns="http://www.w3.org/2000/svg">
<path d="M11.9993 12.833C12.4596 12.833 12.8327 12.4599 12.8327 11.9997C12.8327 11.5394 12.4596 11.1663 11.9993 11.1663C11.5391 11.1663 11.166 11.5394 11.166 11.9997C11.166 12.4599 11.5391 12.833 11.9993 12.833Z" stroke="#214545" stroke-width="2.20209" stroke-linecap="round" stroke-linejoin="round"/>
<path d="M11.9993 6.99967C12.4596 6.99967 12.8327 6.62658 12.8327 6.16634C12.8327 5.7061 12.4596 5.33301 11.9993 5.33301C11.5391 5.33301 11.166 5.7061 11.166 6.16634C11.166 6.62658 11.5391 6.99967 11.9993 6.99967Z" stroke="#214545" stroke-width="2.20209" stroke-linecap="round" stroke-linejoin="round"/>
<path d="M11.9993 18.6663C12.4596 18.6663 12.8327 18.2932 12.8327 17.833C12.8327 17.3728 12.4596 16.9997 11.9993 16.9997C11.5391 16.9997 11.166 17.3728 11.166 17.833C11.166 18.2932 11.5391 18.6663 11.9993 18.6663Z" stroke="#214545" stroke-width="2.20209" stroke-linecap="round" stroke-linejoin="round"/>
</svg>
