<svg width="24" height="24" viewBox="0 0 24 24" fill="none" xmlns="http://www.w3.org/2000/svg">
<path d="M11.223 3.71533C11.4096 3.78533 11.608 3.76977 11.8024 3.80866C14.085 4.2403 15.7805 5.48467 16.741 7.58844C17.8726 10.0694 17.5421 12.4337 15.8894 14.6036C15.8194 14.6969 15.8388 14.7358 15.9088 14.8097C17.1765 16.1202 18.4365 17.4345 19.7003 18.7489C20.0153 19.0755 20.0853 19.4683 19.8947 19.8261C19.6108 20.3549 18.9187 20.4444 18.4831 20.0011C17.9659 19.4722 17.4565 18.9356 16.9471 18.4028C16.1733 17.5979 15.3994 16.7929 14.6295 15.988C14.5517 15.9063 14.5011 15.8985 14.4078 15.9646C10.5541 18.5156 5.38611 16.544 4.21562 12.0798C3.39512 8.96114 4.9778 5.648 7.91763 4.32196C8.60203 4.01476 9.31366 3.82033 10.0564 3.74644C10.0836 3.74644 10.1108 3.75033 10.1225 3.71533H11.223ZM10.6864 15.3502C13.4045 15.358 15.6172 13.1531 15.6327 10.4233C15.6483 7.70121 13.4356 5.46912 10.7019 5.46134C7.97207 5.45356 5.75165 7.66621 5.74776 10.3961C5.73998 13.1259 7.95263 15.3424 10.6864 15.3502Z" fill="white"/>
</svg>
