<svg width="24" height="24" viewBox="0 0 24 24" fill="none" xmlns="http://www.w3.org/2000/svg">
<path d="M20.7601 8.69781L12.5788 16.3905C12.5028 16.462 12.4126 16.5188 12.3133 16.5575C12.214 16.5962 12.1075 16.6161 12 16.6161C11.8925 16.6161 11.786 16.5962 11.6867 16.5575C11.5874 16.5188 11.4972 16.462 11.4212 16.3905L3.23995 8.69781C3.1254 8.59022 3.04738 8.4531 3.01576 8.30379C2.98413 8.15449 3.00034 7.99972 3.06231 7.85908C3.12429 7.71844 3.22925 7.59825 3.36391 7.51373C3.49856 7.42921 3.65686 7.38416 3.81877 7.38428H20.1812C20.3431 7.38416 20.5014 7.42921 20.6361 7.51373C20.7708 7.59825 20.8757 7.71844 20.9377 7.85908C20.9997 7.99972 21.0159 8.15449 20.9842 8.30379C20.9526 8.4531 20.8746 8.59022 20.7601 8.69781Z" fill="#214545"/>
</svg>
